<?xml version="1.0" encoding="UTF-8" standalone="no"?>
<svg width="287.867mm" height="79.9042mm"
 viewBox="0 0 1632 453"
 xmlns="http://www.w3.org/2000/svg" xmlns:xlink="http://www.w3.org/1999/xlink"  version="1.2" baseProfile="tiny">
<title>MestReNova v15.0.0-34764 SVG</title>
<desc>Mnova Page Items</desc>
<defs>
</defs>
<g fill="none" stroke="black" stroke-width="1" fill-rule="evenodd" stroke-linecap="square" stroke-linejoin="bevel" >

<g fill="none" stroke="#000000" stroke-opacity="1" stroke-width="1" stroke-linecap="square" stroke-linejoin="bevel" transform="matrix(0.479859,0,0,0.479365,-2553.33,-3139.36)"
font-family="SimSun" font-size="18" font-weight="400" font-style="normal" 
>
</g>

<g fill="none" stroke="#000000" stroke-opacity="1" stroke-width="1" stroke-linecap="square" stroke-linejoin="bevel" transform="matrix(0.479859,0,0,0.479365,-2553.33,-3139.36)"
font-family="SimSun" font-size="18" font-weight="400" font-style="normal" 
>
</g>

<g fill="none" stroke="#000000" stroke-opacity="1" stroke-width="1" stroke-linecap="square" stroke-linejoin="bevel" transform="matrix(0.479859,0,0,0.479365,-2553.33,-3139.36)"
font-family="SimSun" font-size="18" font-weight="400" font-style="normal" 
>
</g>

<g fill="none" stroke="#000000" stroke-opacity="1" stroke-width="2.5" stroke-linecap="butt" stroke-linejoin="bevel" transform="matrix(0.479859,0,0,0.479365,-2553.33,-3139.36)"
font-family="SimSun" font-size="55" font-weight="400" font-style="normal" 
>
<text fill="#000000" fill-opacity="1" stroke="none" xml:space="preserve" x="8135.05" y="7410.94" font-family="SimSun" font-size="55" font-weight="400" font-style="normal" 
 >0.5</text>
<text fill="#000000" fill-opacity="1" stroke="none" xml:space="preserve" x="7817.72" y="7410.94" font-family="SimSun" font-size="55" font-weight="400" font-style="normal" 
 >1.0</text>
<text fill="#000000" fill-opacity="1" stroke="none" xml:space="preserve" x="7500.38" y="7410.94" font-family="SimSun" font-size="55" font-weight="400" font-style="normal" 
 >1.5</text>
<text fill="#000000" fill-opacity="1" stroke="none" xml:space="preserve" x="7183.03" y="7410.94" font-family="SimSun" font-size="55" font-weight="400" font-style="normal" 
 >2.0</text>
<text fill="#000000" fill-opacity="1" stroke="none" xml:space="preserve" x="6865.69" y="7410.94" font-family="SimSun" font-size="55" font-weight="400" font-style="normal" 
 >2.5</text>
<text fill="#000000" fill-opacity="1" stroke="none" xml:space="preserve" x="6548.36" y="7410.94" font-family="SimSun" font-size="55" font-weight="400" font-style="normal" 
 >3.0</text>
<text fill="#000000" fill-opacity="1" stroke="none" xml:space="preserve" x="6231.02" y="7410.94" font-family="SimSun" font-size="55" font-weight="400" font-style="normal" 
 >3.5</text>
<text fill="#000000" fill-opacity="1" stroke="none" xml:space="preserve" x="5913.67" y="7410.94" font-family="SimSun" font-size="55" font-weight="400" font-style="normal" 
 >4.0</text>
<text fill="#000000" fill-opacity="1" stroke="none" xml:space="preserve" x="5596.33" y="7410.94" font-family="SimSun" font-size="55" font-weight="400" font-style="normal" 
 >4.5</text>
</g>

<g fill="none" stroke="#000000" stroke-opacity="1" stroke-width="1" stroke-linecap="square" stroke-linejoin="bevel" transform="matrix(0.479859,0,0,0.479365,707.648,422.772)"
font-family="SimSun" font-size="55" font-weight="400" font-style="normal" 
>
<text fill="#000000" fill-opacity="1" stroke="none" xml:space="preserve" x="0" y="47" font-family="SimSun" font-size="55" font-weight="400" font-style="normal" 
 >f1 (ppm)</text>
</g>

<g fill="none" stroke="#000000" stroke-opacity="1" stroke-width="2.5" stroke-linecap="butt" stroke-linejoin="bevel" transform="matrix(0.479859,0,0,0.479365,-2553.33,-3139.36)"
font-family="SimSun" font-size="55" font-weight="400" font-style="normal" 
>
<polyline fill="none" vector-effect="none" points="5321,7346.94 8494.4,7346.94 " />
<polyline fill="none" vector-effect="none" points="8335.73,7346.94 8335.73,7355.94 " />
<polyline fill="none" vector-effect="none" points="8018.39,7346.94 8018.39,7355.94 " />
<polyline fill="none" vector-effect="none" points="7701.05,7346.94 7701.05,7355.94 " />
<polyline fill="none" vector-effect="none" points="7383.71,7346.94 7383.71,7355.94 " />
<polyline fill="none" vector-effect="none" points="7066.37,7346.94 7066.37,7355.94 " />
<polyline fill="none" vector-effect="none" points="6749.03,7346.94 6749.03,7355.94 " />
<polyline fill="none" vector-effect="none" points="6431.69,7346.94 6431.69,7355.94 " />
<polyline fill="none" vector-effect="none" points="6114.35,7346.94 6114.35,7355.94 " />
<polyline fill="none" vector-effect="none" points="5797.01,7346.94 5797.01,7355.94 " />
<polyline fill="none" vector-effect="none" points="5479.67,7346.94 5479.67,7355.94 " />
<polyline fill="none" vector-effect="none" points="8494.4,7346.94 8494.4,7364.94 " />
<polyline fill="none" vector-effect="none" points="8177.06,7346.94 8177.06,7364.94 " />
<polyline fill="none" vector-effect="none" points="7859.72,7346.94 7859.72,7364.94 " />
<polyline fill="none" vector-effect="none" points="7542.38,7346.94 7542.38,7364.94 " />
<polyline fill="none" vector-effect="none" points="7225.04,7346.94 7225.04,7364.94 " />
<polyline fill="none" vector-effect="none" points="6907.7,7346.94 6907.7,7364.94 " />
<polyline fill="none" vector-effect="none" points="6590.36,7346.94 6590.36,7364.94 " />
<polyline fill="none" vector-effect="none" points="6273.02,7346.94 6273.02,7364.94 " />
<polyline fill="none" vector-effect="none" points="5955.68,7346.94 5955.68,7364.94 " />
<polyline fill="none" vector-effect="none" points="5638.34,7346.94 5638.34,7364.94 " />
<polyline fill="none" vector-effect="none" points="5321,7346.94 5321,7364.94 " />
</g>

<g fill="none" stroke="#000000" stroke-opacity="1" stroke-width="1" stroke-linecap="square" stroke-linejoin="bevel" transform="matrix(0.479859,0,0,0.479365,-2553.33,-3139.36)"
font-family="SimSun" font-size="18" font-weight="400" font-style="normal" 
>
</g>

<g fill="none" stroke="#000000" stroke-opacity="1" stroke-width="2.5" stroke-linecap="butt" stroke-linejoin="bevel" transform="matrix(0.479859,0,0,0.479365,-2553.33,-3139.36)"
font-family="SimSun" font-size="55" font-weight="400" font-style="normal" 
>
<text fill="#000000" fill-opacity="1" stroke="none" xml:space="preserve" x="8530.39" y="7282.2" font-family="SimSun" font-size="55" font-weight="400" font-style="normal" 
 >0</text>
<text fill="#000000" fill-opacity="1" stroke="none" xml:space="preserve" x="8530.39" y="7158.18" font-family="SimSun" font-size="55" font-weight="400" font-style="normal" 
 >1</text>
<text fill="#000000" fill-opacity="1" stroke="none" xml:space="preserve" x="8530.39" y="7034.15" font-family="SimSun" font-size="55" font-weight="400" font-style="normal" 
 >2</text>
<text fill="#000000" fill-opacity="1" stroke="none" xml:space="preserve" x="8530.39" y="6910.13" font-family="SimSun" font-size="55" font-weight="400" font-style="normal" 
 >3</text>
<text fill="#000000" fill-opacity="1" stroke="none" xml:space="preserve" x="8530.39" y="6786.1" font-family="SimSun" font-size="55" font-weight="400" font-style="normal" 
 >4</text>
<text fill="#000000" fill-opacity="1" stroke="none" xml:space="preserve" x="8530.39" y="6662.08" font-family="SimSun" font-size="55" font-weight="400" font-style="normal" 
 >5</text>
<polyline fill="none" vector-effect="none" points="8509.4,6549.06 8509.4,7331.94 " />
<polyline fill="none" vector-effect="none" points="8509.4,7328.71 8518.4,7328.71 " />
<polyline fill="none" vector-effect="none" points="8509.4,7204.69 8518.4,7204.69 " />
<polyline fill="none" vector-effect="none" points="8509.4,7080.66 8518.4,7080.66 " />
<polyline fill="none" vector-effect="none" points="8509.4,6956.64 8518.4,6956.64 " />
<polyline fill="none" vector-effect="none" points="8509.4,6832.61 8518.4,6832.61 " />
<polyline fill="none" vector-effect="none" points="8509.4,6708.59 8518.4,6708.59 " />
<polyline fill="none" vector-effect="none" points="8509.4,6584.56 8518.4,6584.56 " />
<polyline fill="none" vector-effect="none" points="8509.4,7266.7 8527.4,7266.7 " />
<polyline fill="none" vector-effect="none" points="8509.4,7142.68 8527.4,7142.68 " />
<polyline fill="none" vector-effect="none" points="8509.4,7018.65 8527.4,7018.65 " />
<polyline fill="none" vector-effect="none" points="8509.4,6894.63 8527.4,6894.63 " />
<polyline fill="none" vector-effect="none" points="8509.4,6770.6 8527.4,6770.6 " />
<polyline fill="none" vector-effect="none" points="8509.4,6646.58 8527.4,6646.58 " />
</g>

<g fill="none" stroke="#000000" stroke-opacity="1" stroke-width="1" stroke-linecap="square" stroke-linejoin="bevel" transform="matrix(0.479859,0,0,0.479365,-2553.33,-3139.36)"
font-family="SimSun" font-size="18" font-weight="400" font-style="normal" 
>
</g>

<g fill="none" stroke="#000000" stroke-opacity="1" stroke-width="1" stroke-linecap="square" stroke-linejoin="bevel" transform="matrix(0.479859,0,0,0.479365,-2553.33,-3139.36)"
font-family="SimSun" font-size="18" font-weight="400" font-style="normal" 
>
</g>

<g fill="none" stroke="#660080" stroke-opacity="1" stroke-width="2.5" stroke-linecap="butt" stroke-linejoin="bevel" transform="matrix(0.479859,0,0,0.479365,-2553.33,-3139.36)"
font-family="SimSun" font-size="18" font-weight="400" font-style="normal" 
>
<polyline fill="none" vector-effect="none" points="5321,7264.95 5386.62,7263.5 5388.32,7262.71 5397.02,7260.89 5399.19,7260.03 5405.4,7258.71 5407.42,7257.68 5409.44,7256.46 5411.61,7255.26 5413.78,7253.99 5415.8,7252.81 5417.82,7251.72 5419.99,7249.51 5420.15,7249.31 5422.01,7246.83 5422.17,7246.59 5424.18,7243.41 5424.34,7243.22 5426.2,7239.82 5426.36,7239.52 5428.38,7233.99 5428.53,7233.49 5430.39,7227.22 5430.55,7226.61 5432.41,7217.79 5432.57,7216.9 5434.59,7201.98 5434.74,7200.46 5436.6,7178.23 5436.76,7175.95 5438.78,7129.17 5438.93,7123.82 5440.8,7022.18 5440.95,7009.02 5442.97,6708.13 5443.12,6671.74 5443.48,6549.06 " />
<polyline fill="none" vector-effect="none" points="5452.29,6549.06 5452.44,6595.78 5453.37,6814.3 5453.52,6840.08 5455.39,7021.14 5455.54,7029.99 5457.56,7110.14 5457.72,7114.51 5459.58,7157.44 5459.73,7160.35 5461.6,7186.68 5461.75,7188.35 5463.77,7207.63 5463.93,7208.79 5465.79,7220.31 5465.94,7221.03 5467.96,7229.67 5468.12,7230.17 5469.98,7235.67 5470.14,7236.11 5472,7240.6 5472.15,7240.89 5474.17,7244.05 5474.33,7244.27 5476.19,7246.92 5476.34,7247.07 5478.52,7249.08 5480.38,7251.21 5480.54,7251.29 5482.71,7253.4 5486.75,7255.26 5489.85,7256.15 5495.13,7257.65 5497.3,7258.58 5515.93,7260.49 5518.1,7261.08 5566.07,7263 5569.02,7263.29 5768.04,7262.62 5768.2,7262.45 5770.06,7259.34 5770.21,7258.83 5771.3,7256.64 5774.09,7255.97 5775.34,7257.4 5776.27,7254.88 5776.42,7254.16 5778.44,7243.34 5778.6,7241.89 5779.68,7235.53 5780.61,7237.62 5781.55,7241.11 5782.79,7240.41 5783.87,7247.3 5784.81,7241.51 5786.82,7228.17 5786.98,7226.84 5788.38,7221.9 5789,7224.61 5790.86,7237.17 5791.02,7238.11 5792.26,7247.39 5793.19,7243.18 5794.28,7237.08 5796.6,7236.48 5797.38,7239.1 5799.24,7252.96 5799.4,7253.55 5800.95,7257.57 5802.5,7255.24 5803.59,7256.33 5805.61,7257.23 5807.63,7262.95 5943,7261.32 5943.15,7260.95 5945.17,7252.88 5945.32,7251.48 5946.72,7239.81 5948.58,7242.55 5949.36,7239.74 5949.67,7238.86 5951.07,7249.69 5951.53,7249.08 5953.4,7233.73 5954.02,7234.41 5955.57,7227.38 5956.35,7215.87 5957.59,7233.31 5957.74,7234.49 5958.83,7239.54 5959.92,7236.17 5961.16,7248.94 5961.93,7247.62 5963.33,7236.57 5964.11,7238.79 5965.35,7241.99 5966.13,7239.9 5967.99,7258.62 5968.14,7259.31 5970.16,7262.73 6072.31,7263.19 6072.47,7263.12 6074.33,7260.74 6074.48,7260.37 6076.35,7251.88 6076.81,7251.2 6079.61,7251.73 6080.54,7257.06 6081.31,7259.7 6082.71,7257.31 6082.87,7256.78 6084.73,7241.03 6084.88,7237.97 6085.97,7223.4 6087.83,7231.47 6088.77,7226.07 6089.08,7227.7 6090.94,7256.33 6091.25,7256.89 6093.11,7249.15 6093.27,7247.95 6095.13,7221.81 6095.29,7222.17 6097.15,7231.01 6098.08,7225.65 6099.32,7252.51 6099.48,7254.1 6100.72,7259.63 6101.65,7259.27 6103.51,7252.41 6104.44,7249.35 6105.53,7251.53 6107.24,7250.95 6107.7,7253.11 6107.86,7254.5 6109.72,7262.23 6137.04,7264.11 6140.77,7264.45 6187.96,7262.92 6189.05,7262.81 6191.07,7260.63 6191.22,7260.23 6193.09,7251.58 6193.24,7250.4 6195.26,7211.47 6195.73,7204.73 6197.28,7211.33 6197.59,7211.82 6198.83,7197.08 6199.92,7219.72 6201.31,7200.49 6201.62,7202.42 6203.33,7214.9 6204.26,7206.17 6205.66,7242.68 6206.44,7246.3 6207.68,7235.76 6207.83,7233.62 6209.39,7197.73 6211.4,7209.14 6211.87,7202.43 6212.34,7195.13 6213.73,7228.31 6214.04,7227.11 6215.44,7198.83 6216.22,7205.69 6217.61,7214.26 6218.55,7205.06 6220.25,7252.73 6220.41,7254.11 6222.27,7261.36 6229.1,7263.23 6232.67,7263.46 6384.81,7261.81 6384.96,7261.6 6386.98,7256.42 6387.14,7255.62 6389,7245.26 6389.46,7244.92 6391.64,7245.09 6393.19,7250.12 6393.66,7250.83 6395.21,7245.31 6396.14,7244.35 6397.54,7246.19 6399.4,7252.64 6399.56,7253.7 6401.57,7260.63 6403.59,7259.08 6403.75,7258.76 6405.61,7250.63 6405.76,7249.47 6407.78,7236.16 6407.94,7236.06 6409.96,7236.63 6411.97,7244.97 6412.13,7245.04 6413.99,7237.17 6414.46,7236.77 6416.17,7239.14 6416.32,7239.27 6418.18,7251.58 6418.34,7253.05 6420.2,7261.36 6425.01,7263.3 6426.72,7263.7 6486.95,7261.86 6487.11,7261.68 6488.97,7256.6 6489.13,7255.88 6491.15,7239.67 6491.92,7236.42 6494.1,7238.67 6495.34,7246.52 6495.49,7248.2 6497.36,7258.43 6497.51,7258.5 6499.53,7253.7 6499.68,7252.76 6501.55,7237.81 6502.01,7236.76 6503.57,7239.33 6504.19,7239.13 6505.74,7249.18 6505.89,7250.61 6507.29,7255.78 6507.91,7254.78 6509.93,7244.39 6510.4,7243.88 6512.26,7245.85 6514.12,7254.11 6514.28,7255.39 6515.98,7260.19 6516.3,7260.06 6518.16,7255.99 6518.31,7255.27 6520.33,7245.01 6520.49,7244.92 6522.35,7247.2 6522.5,7247.21 6524.52,7257.15 6524.68,7257.96 6526.54,7262.67 7020.51,7261.87 7020.67,7261.73 7022.53,7258.92 7026.1,7258.14 7028.74,7256.42 7028.9,7256.27 7030.91,7250.94 7031.07,7250.05 7031.69,7247.85 7034.95,7249.16 7036.04,7251.61 7037.12,7248.26 7037.28,7247.92 7039.14,7244.82 7039.3,7244.24 7040.54,7237.23 7041.47,7241.87 7042.71,7245.14 7043.8,7243.49 7044.89,7247.1 7047.53,7243.14 7047.68,7243.08 7049.39,7237.18 7049.7,7238.36 7051.72,7248.53 7052.49,7247.88 7053.73,7250.72 7054.05,7251 7055.29,7248.41 7057.93,7248.12 7058.24,7247.77 7060.1,7256.08 7064.29,7257.88 7067.09,7258.56 7068.33,7261.41 7075.16,7263.24 7076.87,7263.72 7532.96,7261.9 7534.36,7261.55 7536.84,7260.55 7537.46,7260.63 7539.32,7257.78 7539.48,7257.36 7541.5,7244.31 7541.65,7242.09 7543.52,7199.1 7543.67,7193.27 7545.38,7107.62 7545.69,7111.3 7547.4,7132.73 7548.17,7120.35 7549.73,7216.82 7550.66,7230.94 7551.9,7218.57 7552.05,7215.11 7553.92,7126.41 7554.54,7107.07 7556.09,7130.08 7557.33,7123.48 7558.11,7167 7558.26,7182.09 7560.13,7249.04 7560.28,7249.86 7562.3,7257.08 7564.47,7258.65 7566.65,7260.69 7572.86,7262.55 7575.81,7263.21 7626.72,7261.49 7628.9,7260.61 7633.09,7259.04 7633.24,7258.94 7635.26,7254.93 7635.42,7254.08 7637.28,7232.4 7637.44,7229.69 7639.3,7161.41 7639.45,7149.78 7640.54,7085.94 7642.56,7115.2 7643.34,7099.54 7643.65,7104.14 7645.66,7212.63 7645.82,7213.37 7647.68,7156.71 7647.84,7145.27 7648.92,7084.63 7650.94,7117.99 7651.72,7104.04 7652.03,7110.42 7653.89,7237.24 7654.05,7240.97 7656.06,7255.4 7656.22,7255.68 7658.08,7258.45 7660.41,7260.2 7662.58,7261.56 7672.83,7263.45 7676.09,7263.8 7805.72,7262.38 7808.2,7261.69 7811.93,7260.64 7814.41,7259.22 7814.56,7258.99 7816.58,7255.36 7816.74,7254.56 7818.6,7234.39 7818.76,7231.94 7820.62,7168.75 7820.77,7158.35 7822.02,7098.2 7823.88,7121.51 7824.65,7111.74 7824.97,7115.85 7826.98,7221.02 7827.29,7222.07 7829,7190.7 7829.16,7184.76 7830.86,7098.6 7831.33,7103.58 7832.88,7124.69 7833.66,7117.22 7835.21,7217.76 7835.37,7224.13 7837.38,7252.65 7837.54,7253.34 7839.4,7256.12 7842.04,7257.69 7843.75,7258.6 7847.63,7258.08 7847.94,7258.07 7849.8,7252.82 7849.96,7251.75 7851.98,7224.41 7852.13,7220.73 7854,7130.27 7854.15,7119.58 7854.77,7097.18 7857.57,7110.8 7858.19,7138.7 7858.34,7152.68 7860.05,7222.67 7860.36,7221.86 7862.38,7165.01 7862.53,7155.06 7863.62,7097.94 7864.55,7111.89 7865.64,7125.89 7866.72,7121.71 7868.59,7236.93 7868.74,7240.48 7870.76,7253.47 7870.92,7253.69 7872.78,7256.04 7879.92,7257.73 7881.32,7258.94 7883.18,7261.2 7890.01,7263.03 7891.72,7263.59 8493.89,7264.55 8494.4,7264.62 " />
</g>

<g fill="none" stroke="#000000" stroke-opacity="1" stroke-width="1" stroke-linecap="square" stroke-linejoin="bevel" transform="matrix(0.479859,0,0,0.479365,-2553.33,-3139.36)"
font-family="SimSun" font-size="18" font-weight="400" font-style="normal" 
>
</g>

<g fill="none" stroke="#000000" stroke-opacity="1" stroke-width="1" stroke-linecap="square" stroke-linejoin="bevel" transform="matrix(0.479859,0,0,0.479365,-2553.33,-3139.36)"
font-family="SimSun" font-size="18" font-weight="400" font-style="normal" 
>
</g>

<g fill="none" stroke="#000000" stroke-opacity="1" stroke-width="1" stroke-linecap="square" stroke-linejoin="bevel" transform="matrix(0.479859,0,0,0.479365,-2553.33,-3139.36)"
font-family="SimSun" font-size="18" font-weight="400" font-style="normal" 
>
</g>

<g fill="none" stroke="#000000" stroke-opacity="1" stroke-width="1" stroke-linecap="square" stroke-linejoin="bevel" transform="matrix(0.479859,0,0,0.479365,-2553.33,-3139.36)"
font-family="SimSun" font-size="18" font-weight="400" font-style="normal" 
>
</g>
</g>
</svg>
